<svg width="390" height="844" viewBox="0 0 390 844" fill="none" xmlns="http://www.w3.org/2000/svg">
<g clip-path="url(#clip0_2_3)">
<rect width="390" height="844" fill="#389930"/>
<rect x="-156" y="-67" width="739" height="710" fill="url(#paint0_radial_2_3)"/>
<path d="M1494.89 598.891C1601.9 675.348 1154.18 732 790.554 732C426.93 732 -60 608.412 -60 588.758C-60 529.681 180.675 695.238 965.055 689.936C985.555 689.798 1006.57 697.215 1026.98 699.228C1150.06 711.372 1533.29 569.964 1494.89 598.891Z" fill="#1E1E1E" fill-opacity="0.12"/>
<path d="M0 635L2.17623 636.828C68.3932 692.446 149.747 726.963 235.756 735.932L577.024 771.52H1084.86L1280.98 759.847C1330.67 756.889 1379.48 745.386 1425.26 725.843L1476 704.182V855H0V635Z" fill="#432808"/>
<path d="M145 755.548C145 783.544 80.1369 862 47.4563 862C14.7758 862 -10.7925 791.839 -10.7925 763.843C-10.7925 735.847 -15.2732 662 17.4073 662C50.0879 662 145 727.552 145 755.548Z" fill="#523513"/>
<path d="M447 778.501C447 806.592 371.006 862.658 338.507 862.658C306.009 862.658 253 883.351 253 855.259C253 827.168 306.009 760.929 338.507 760.929C371.006 760.929 447 750.409 447 778.501Z" fill="#523513"/>
<path d="M279 770.66C279 798.574 232.034 871.745 199.582 871.745C167.129 871.745 122 880.361 122 852.447C122 824.533 167.129 752.74 199.582 752.74C232.034 752.74 279 742.746 279 770.66Z" fill="#523513"/>
<path d="M116 764.913C116 792.842 93.6919 821 61.0465 821C28.4012 821 -23 762.5 -23 734.57C-23 706.641 3.46428 684 36.1096 684C68.755 684 116 736.983 116 764.913Z" fill="#66431D"/>
<path d="M411 796.677C411 826.202 353.161 855.969 316.094 855.969C279.026 855.969 271 871.401 271 841.875C271 812.35 335.131 768.003 372.199 768.003C409.266 768.003 411 767.151 411 796.677Z" fill="#66431D"/>
<path d="M271 771.573C271 799.657 221.156 853.857 188.623 853.857C156.09 853.857 138 867.148 138 839.065C138 810.981 180.941 764.639 213.474 764.639C246.007 764.639 271 743.489 271 771.573Z" fill="#66431D"/>
<path d="M77.7265 714.429C77.7265 742.453 92.3736 797 59.7021 797C27.0306 797 -17.4793 760.845 -17.4793 732.821C-17.4793 704.797 -50.1508 654 -17.4793 654C15.1922 654 77.7265 686.405 77.7265 714.429Z" fill="#82602E"/>
<path d="M253 782.613C253 810.698 232.773 793.708 217.602 811.276C185.103 811.276 156 854.617 156 826.532C156 798.446 185.103 772.905 217.602 772.905C250.1 772.905 253 754.528 253 782.613Z" fill="#82602E"/>
<g filter="url(#filter0_d_2_3)">
<path d="M-0.493854 655.094C-0.493854 648.88 11.2473 649.043 15.0597 649.871C20.2549 651 25.9685 657.007 28.29 661.413C29.9258 664.519 29.7098 668.228 29.7098 671.601C29.7098 675.875 32.0332 679.185 32.0332 682.95C32.0332 688.023 31.8241 692.898 33.453 697.78C35.4091 703.643 41.3467 697.659 44.1017 695.33C49.2075 691.013 55.9271 682.392 63.3985 684.368C68.3201 685.67 69.9982 696.008 72.1756 700.359C73.9025 703.81 80.9214 717.623 84.5669 717.769C95.8125 718.218 100.025 706.973 107.8 700.617C109.399 699.311 110.687 701.668 111.027 702.809C112.59 708.044 111.796 709.487 117.868 708.742C123.073 708.103 122.984 711.362 125.613 714.738C127 716.521 132.669 715.447 134.842 715.447C138.824 715.447 138.381 718.929 143.038 718.929C146.736 718.929 150.178 719.084 153.751 718.027C158.303 716.679 158.559 719.086 160.463 722.347C163.313 727.228 168.978 731.402 172.661 735.694C174.269 737.569 180.583 735.485 182.535 734.598C186.922 732.606 190.728 731.696 195.572 731.696C201.582 731.696 206.867 732.029 212.674 732.922C216.625 733.529 220.333 735.567 224.226 736.275C227.545 736.877 229.832 736.383 233.004 738.015C234.541 738.807 240.324 739.388 241.135 740.401C243.045 742.787 247.105 745.118 249.783 746.527C263.09 753.524 278.025 757.23 293.153 757.23C300.511 757.23 306.603 753.749 313.676 753.749C322.11 753.749 323.694 746.089 332.908 752.008C336.194 754.118 339.342 756.025 342.782 757.875C346.988 760.138 349.939 759.592 354.076 760.97C358.997 762.609 363.27 764.194 368.662 764.194C372.688 764.194 375.864 766.516 380.021 766.516C387.397 766.516 397.579 768.358 404.674 766.258C409.077 764.954 413.762 763.975 418.291 762.969C422.28 762.084 426.395 759.552 430.489 759.552C436.491 759.552 442.493 759.552 448.495 759.552C454.565 759.552 459.739 761.439 465.598 761.873C471.873 762.337 475.683 767.773 482.184 768.772C491.404 770.19 501.831 768.837 511.161 768.837C519.971 768.837 526.823 770.444 534.524 774.64C540.655 777.981 542.336 783.735 546.915 788.31C552.805 794.195 557.736 786.284 560.016 782.184C563.206 776.447 566.34 792.352 569.374 788.31C572.501 784.145 571.165 780.804 578.087 781.668C584.978 782.529 602.095 802.366 606.161 790.631C607.028 788.129 606.338 784.738 608.484 783.022C610.489 781.42 617.108 778.903 619.843 778.122C631.184 774.884 643.475 779.594 654.951 780.443C668.873 781.474 685.409 786.829 693.674 798.756C699.205 806.738 697.402 791.049 699.418 788.632C701.139 786.569 699.354 782.691 700.257 780.185C701.648 776.323 706.622 776.961 709.873 776.961C721.081 776.961 732.289 776.961 743.497 776.961C756.521 776.961 767.488 787.407 781.058 787.407C787.424 787.407 793.611 785.568 798.16 781.024C802.515 776.673 811.376 777.435 817.393 778.186C820.518 778.577 823.289 779.745 826.105 781.024C828.148 781.951 834.288 784.941 836.173 785.086C843.748 785.668 849.254 792.921 857.083 793.21C868.502 793.633 884.043 795.522 894.902 792.308C907.888 788.464 919.63 786.348 932.334 792.694C935.599 794.325 950.151 799.356 950.921 792.05C951.191 789.486 949.469 773.859 954.406 777.735C958.002 780.558 959.728 786.417 964.28 788.439C967.486 789.862 972.097 790.118 975.575 791.147C981.051 792.768 993.357 796.137 995.968 788.31C998.405 781.006 996.109 771.927 1006.1 779.283C1012.98 784.349 1026.95 789.366 1035.47 789.728C1045.55 790.157 1062.59 797.068 1071.09 789.793C1073.45 787.771 1073.94 782.467 1074.06 779.541C1074.23 775.238 1089.65 779.806 1091.81 780.314C1102.28 782.776 1116.51 786.996 1120.78 798.111C1123.35 804.771 1128.15 796.537 1129.56 792.952C1131.89 787.02 1137.15 783.071 1140.27 777.606C1141.61 775.273 1158.9 784.932 1161.64 786.827C1166.12 789.927 1176.23 794.291 1180.03 788.31C1182.3 784.737 1183.26 783.385 1183.26 779.283C1183.26 775.367 1184.38 773.794 1188.55 776.446C1193.3 779.465 1196.96 783.406 1201.84 785.989C1203.88 787.067 1207.53 790.09 1209.85 788.439C1212.87 786.281 1212.62 780.581 1217.46 780.443C1226.46 780.186 1233.63 787.407 1243.08 787.407C1252.48 787.407 1261.89 787.407 1271.29 787.407C1279.72 787.407 1286.25 776.956 1290.58 770.707C1294.12 765.599 1300.59 769.746 1300.59 775.22C1300.59 777.877 1301.75 780.39 1301.75 783.28C1301.75 786.428 1300.65 791.68 1305.23 788.31C1312.43 783.025 1324.55 775.876 1326.08 765.935C1327.48 756.807 1331.69 766.79 1331.95 771.158C1332.07 773.226 1333.61 777.623 1334.4 779.798C1336.81 786.404 1357.25 776.041 1360.99 774.64C1366.04 772.749 1370.09 770.413 1373.77 766.516C1375.09 765.117 1379.03 761.774 1379.52 760.068C1381.29 753.876 1381.99 751.153 1389.13 751.427C1397.67 751.755 1396.22 765.371 1401.65 753.168C1402.92 750.322 1408.35 751.427 1410.95 751.427C1414.97 751.427 1416.6 751.078 1419.72 748.526C1425.7 743.636 1430.29 738.243 1436.76 734.018C1442.16 730.494 1445.39 727.594 1449.93 723.056C1454.03 718.953 1459.57 720.807 1464.38 718.671C1467.82 717.145 1476 713.667 1476 709.644C1476 703.895 1472.51 699.425 1472.51 693.911C1472.51 687.162 1472.51 680.413 1472.51 673.664C1472.51 667.044 1473.28 663.397 1475.42 657.416C1477.36 651.997 1447.73 663.77 1444.51 665.024C1426.74 671.925 1409.51 680.16 1391.65 687.141C1382.07 690.887 1373.57 698.156 1364.48 702.938C1354.51 708.183 1342 713.415 1331.05 715.705C1321.7 717.661 1314.09 723.346 1304.65 724.797C1299.43 725.6 1295.46 727.83 1289.87 728.215C1287.54 728.376 1286.1 730.412 1283.81 730.536C1279.82 730.751 1276.09 731.11 1272.13 731.696C1258.42 733.724 1244.7 734.592 1231.14 737.242C1214.39 740.517 1197.71 739.821 1180.68 739.821C1045.62 739.821 910.564 739.821 775.508 739.821C746.791 739.821 716.541 743.004 689.027 734.018C675.462 729.587 661.087 727.917 647.271 724.152C640.582 722.329 632.923 719.268 626.038 718.929C617.559 718.513 607.869 718.845 599.578 717.188C580.536 713.383 560.381 714.224 541.107 711.45C521.243 708.591 500.89 710.909 481.087 708.226C466.979 706.315 452.223 707.323 437.975 707.323C420.184 707.323 402.394 707.323 384.603 707.323C363.37 707.323 342.137 707.323 320.904 707.323C313.676 707.323 305.754 708.169 298.574 707.065C292.206 706.086 283.46 706.173 277.664 703.777C270.508 700.818 262.969 701.907 255.592 699.843C247.045 697.452 238.244 697.775 229.906 694.556C214.045 688.433 197.977 682.903 182.148 676.502C168.413 670.947 155.115 663.863 141.747 657.416C136.564 654.916 131.017 652.415 125.613 650.452C120.42 648.565 116.799 643.982 111.027 643.488C103.538 642.847 95.4765 638.717 87.7292 637.749C78.6109 636.61 69.7198 636.524 60.4943 636.524C49.6262 636.524 35.1993 633.573 26.7411 626.659C20.7274 621.743 13.4581 617.246 8.1542 611.635C2.75996 605.928 3.56982 599.085 0.409674 592.42C-2.10306 587.12 -1.65553 591.555 -1.65553 595.902C-1.65553 599.287 -3.97889 601.65 -3.97889 604.606C-3.97889 610.797 -3.97889 616.987 -3.97889 623.177C-3.97889 627.934 -4.38295 653.732 -1.65553 655.094" stroke="url(#paint1_linear_2_3)" stroke-width="12" stroke-linecap="round"/>
</g>
<path d="M1507.44 634.036C1570.61 771.332 1166.72 776.488 755.445 763.027C9.44052 738.611 10.8236 651.093 7.1351 634.036C0.027 601.164 273.631 713.273 776.654 713.273C1153.34 771.332 1491.98 600.418 1507.44 634.036Z" fill="#ADCC3B"/>
<path d="M1507.44 634.036C1570.61 771.332 1166.72 776.488 755.445 763.027C9.44052 738.611 10.8236 651.093 7.1351 634.036C0.027 601.164 273.631 713.273 776.654 713.273C1153.34 771.332 1491.98 600.418 1507.44 634.036Z" fill="url(#paint2_linear_2_3)"/>
<path d="M-10.4488 639.472C-10.4488 633.508 1.44308 633.665 5.30442 634.46C10.5663 635.543 14.7845 627.998 17.1357 632.228C18.7926 635.208 27.0495 638.463 27.0495 641.7C27.0495 645.802 43.1926 659.911 43.1926 663.523C43.1926 668.392 38.3142 672.659 39.964 677.344C41.9453 682.971 48.5319 676.344 51.3223 674.108C56.4936 669.966 46.6964 665.671 54.2637 667.567C59.2486 668.816 73.7346 669.933 75.94 674.108C79.3391 680.544 80.55 697.255 84.2422 697.394C95.6322 697.826 91.3605 689.261 99.2357 683.161C100.854 681.908 102.159 684.17 102.504 685.265C104.087 690.289 103.283 691.674 109.433 690.959C114.705 690.346 114.615 690.198 117.277 693.438C118.682 695.149 124.424 697.394 126.624 697.394C130.658 697.394 130.209 700.736 134.926 700.736C138.671 700.736 142.157 700.885 145.776 699.87C150.387 698.577 150.646 700.886 152.575 704.016C155.461 708.7 162.611 701.745 166.341 705.864C167.97 707.663 172.952 716.624 174.93 715.774C179.373 713.861 183.227 712.989 188.134 712.989C194.221 712.989 199.574 713.308 205.456 714.165C209.457 714.747 213.213 716.704 217.156 717.383C220.518 717.961 222.834 717.487 226.046 719.053C227.604 719.813 233.461 720.371 234.282 721.343C236.217 723.632 240.328 725.87 243.041 727.222C256.518 733.937 271.646 737.494 286.968 737.494C294.42 737.494 300.591 734.153 307.754 734.153C316.296 734.153 317.901 726.802 327.233 732.482C330.562 734.508 333.75 736.337 337.234 738.113C341.494 740.285 344.483 739.761 348.673 741.084C353.657 742.656 357.985 744.178 363.446 744.178C367.523 744.178 370.741 746.405 374.951 746.405C382.422 746.405 392.734 748.174 399.92 746.158C404.38 744.907 409.126 743.967 413.713 743.002C417.753 742.152 421.921 739.722 426.067 739.722C432.146 739.722 438.225 739.722 444.304 739.722C450.452 739.722 455.692 741.534 461.626 741.95C467.982 742.396 471.841 747.612 478.425 748.571C487.764 749.931 498.325 748.633 507.775 748.633C516.698 748.633 523.638 750.175 531.437 754.203C537.647 757.409 539.35 762.931 543.988 767.322C549.954 772.97 554.948 765.378 557.257 761.443C560.488 755.937 563.662 771.201 566.735 767.322C569.902 763.324 568.549 760.118 575.56 760.948C582.54 761.774 599.876 780.812 603.994 769.55C604.872 767.148 604.174 763.893 606.347 762.247C608.378 760.709 615.081 758.294 617.851 757.544C629.339 754.437 641.787 758.957 653.411 759.772C667.511 760.761 679.553 762.531 687.924 773.978C690.299 783.643 685.882 771.869 687.924 769.55C689.667 767.569 698.383 761.929 699.298 759.525C700.708 755.818 705.744 756.43 709.037 756.43C720.389 756.43 731.741 756.43 743.093 756.43C756.285 756.43 767.392 766.455 781.136 766.455C787.584 766.455 793.851 764.691 798.458 760.329C802.869 756.153 811.844 756.885 817.938 757.606C821.103 757.981 823.91 759.102 826.762 760.329C828.831 761.22 835.05 764.089 836.959 764.228C844.631 764.786 851.18 776.45 859.11 776.728C870.675 777.134 885.444 774.244 896.442 771.159C909.594 767.469 910.814 765.934 923.682 772.025C926.989 773.59 945.36 779.961 953.18 770.911C953.454 768.451 951.709 753.453 956.71 757.173C960.352 759.882 962.1 765.506 966.711 767.446C969.958 768.812 972.279 771.037 975.801 772.025C981.348 773.581 986.993 778.423 989.638 770.911C992.106 763.901 998.949 751.599 1009.07 758.658C1016.04 763.521 1031.15 776.728 1038.81 768.683C1049.02 769.095 1036.76 779.513 1066.66 770.911C1069.06 768.97 1077.78 761.714 1077.9 758.906C1078.07 754.777 1092.15 759.842 1094.34 760.329C1104.95 762.692 1120.89 766.061 1125.22 776.728C1127.82 783.12 1119.68 774.351 1121.11 770.911C1123.47 765.218 1141.8 762.294 1144.96 757.049C1146.32 754.81 1160.29 766.865 1163.06 768.683C1167.6 771.658 1181.39 773.062 1185.23 767.322C1187.53 763.893 1188.5 762.596 1188.5 758.658C1188.5 754.901 1189.64 753.391 1193.86 755.935C1198.67 758.833 1202.38 762.615 1207.32 765.094C1209.39 766.129 1206.84 773.362 1209.18 771.777C1212.25 769.707 1218.24 759.905 1223.14 759.772C1232.26 759.526 1236.51 771.777 1246.08 771.777C1255.6 771.777 1268.14 766.455 1277.66 766.455C1286.2 766.455 1292.82 756.425 1297.2 750.428C1300.79 745.525 1307.33 749.506 1307.33 754.76C1307.33 757.309 1308.51 759.721 1308.51 762.495C1308.51 765.516 1307.4 770.556 1312.04 767.322C1319.33 762.25 1331.6 755.389 1333.15 745.849C1334.58 737.088 1338.84 746.669 1339.1 750.861C1339.23 752.845 1340.29 763.006 1341.1 765.094C1343.53 771.434 1364.73 755.547 1368.52 754.203C1373.63 752.388 1372.88 741.821 1376.61 738.08C1377.95 736.738 1386.78 741.855 1387.28 740.217C1389.07 734.275 1389.78 731.661 1397.02 731.925C1405.67 732.24 1404.2 745.307 1409.7 733.596C1410.98 730.864 1416.48 731.925 1419.11 731.925C1423.18 731.925 1415.69 725.654 1424.58 725.654C1426.23 719.867 1442.01 713.702 1448.56 709.647C1454.03 706.265 1453.99 709.051 1458.59 704.697C1462.75 700.759 1468.36 702.538 1473.23 700.489C1476.72 699.023 1485 695.686 1485 691.825C1485 686.307 1481.47 682.017 1481.47 676.726C1481.47 670.249 1481.47 663.772 1481.47 657.294C1481.47 650.941 1482.25 647.44 1484.41 641.7C1486.37 636.5 1456.37 647.799 1453.1 649.002C1435.11 655.625 1417.65 663.528 1399.57 670.228C1389.86 673.823 1381.26 680.799 1372.05 685.389C1361.95 690.422 1349.28 695.444 1338.19 697.642C1328.72 699.519 1321.01 704.975 1311.45 706.367C1306.16 707.138 1302.14 709.278 1296.48 709.647C1294.12 709.802 1292.67 711.756 1290.34 711.875C1286.3 712.082 1282.52 712.426 1278.51 712.989C1264.63 714.935 1250.73 715.768 1237 718.311C1220.03 721.454 1203.14 720.786 1185.88 720.786C1049.09 720.786 912.305 720.786 775.515 720.786C746.43 720.786 715.791 723.841 687.924 715.217C674.185 710.964 659.625 709.362 645.632 705.749C638.857 703.999 631.1 701.061 624.127 700.736C615.538 700.336 605.724 700.655 597.327 699.065C578.04 695.414 557.627 696.22 538.105 693.558C517.986 690.814 497.372 693.038 477.314 690.464C463.025 688.629 448.08 689.597 433.649 689.597C415.63 689.597 397.611 689.597 379.592 689.597C358.086 689.597 336.581 689.597 315.075 689.597C307.754 689.597 299.73 690.409 292.458 689.35C286.008 688.41 277.15 688.493 271.28 686.194C264.032 683.354 256.397 684.4 248.924 682.419C240.268 680.124 231.354 680.433 222.909 677.344C206.844 671.468 190.57 666.161 174.538 660.017C160.627 654.687 147.158 647.888 133.618 641.7C128.369 639.301 122.751 636.901 117.277 635.017C112.018 633.206 108.35 628.808 102.504 628.333C94.9189 627.718 86.7536 623.754 78.9068 622.826C69.6714 621.733 60.6662 621.65 51.3223 621.65C40.3147 621.65 25.7025 618.818 17.1357 612.182C11.0448 607.464 3.68219 603.148 -1.68977 597.763C-7.15326 592.287 -6.333 585.719 -9.53371 579.322C-12.0787 574.236 -11.6254 578.493 -11.6254 582.664C-11.6254 585.913 -13.9786 588.181 -13.9786 591.018C-13.9786 596.959 -13.9786 602.9 -13.9786 608.84C-13.9786 613.406 -14.3879 638.165 -11.6254 639.472" stroke="#9DBE2E" stroke-width="33" stroke-linecap="round"/>
<path d="M-10.4488 639.472C-10.4488 633.508 1.44308 633.665 5.30442 634.46C10.5663 635.543 14.7845 627.998 17.1357 632.228C18.7926 635.208 27.0495 638.463 27.0495 641.7C27.0495 645.802 43.1926 659.911 43.1926 663.523C43.1926 668.392 38.3142 672.659 39.964 677.344C41.9453 682.971 48.5319 676.344 51.3223 674.108C56.4936 669.966 46.6964 665.671 54.2637 667.567C59.2486 668.816 73.7346 669.933 75.94 674.108C79.3391 680.544 80.55 697.255 84.2422 697.394C95.6322 697.826 91.3605 689.261 99.2357 683.161C100.854 681.908 102.159 684.17 102.504 685.265C104.087 690.289 103.283 691.674 109.433 690.959C114.705 690.346 114.615 690.198 117.277 693.438C118.682 695.149 124.424 697.394 126.624 697.394C130.658 697.394 130.209 700.736 134.926 700.736C138.671 700.736 142.157 700.885 145.776 699.87C150.387 698.577 150.646 700.886 152.575 704.016C155.461 708.7 162.611 701.745 166.341 705.864C167.97 707.663 172.952 716.624 174.93 715.774C179.373 713.861 183.227 712.989 188.134 712.989C194.221 712.989 199.574 713.308 205.456 714.165C209.457 714.747 213.213 716.704 217.156 717.383C220.518 717.961 222.834 717.487 226.046 719.053C227.604 719.813 233.461 720.371 234.282 721.343C236.217 723.632 240.328 725.87 243.041 727.222C256.518 733.937 271.646 737.494 286.968 737.494C294.42 737.494 300.591 734.153 307.754 734.153C316.296 734.153 317.901 726.802 327.233 732.482C330.562 734.508 333.75 736.337 337.234 738.113C341.494 740.285 344.483 739.761 348.673 741.084C353.657 742.656 357.985 744.178 363.446 744.178C367.523 744.178 370.741 746.405 374.951 746.405C382.422 746.405 392.734 748.174 399.92 746.158C404.38 744.907 409.126 743.967 413.713 743.002C417.753 742.152 421.921 739.722 426.067 739.722C432.146 739.722 438.225 739.722 444.304 739.722C450.452 739.722 455.692 741.534 461.626 741.95C467.982 742.396 471.841 747.612 478.425 748.571C487.764 749.931 498.325 748.633 507.775 748.633C516.698 748.633 523.638 750.175 531.437 754.203C537.647 757.409 539.35 762.931 543.988 767.322C549.954 772.97 554.948 765.378 557.257 761.443C560.488 755.937 563.662 771.201 566.735 767.322C569.902 763.324 568.549 760.118 575.56 760.948C582.54 761.774 599.876 780.812 603.994 769.55C604.872 767.148 604.174 763.893 606.347 762.247C608.378 760.709 615.081 758.294 617.851 757.544C629.339 754.437 641.787 758.957 653.411 759.772C667.511 760.761 679.553 762.531 687.924 773.978C690.299 783.643 685.882 771.869 687.924 769.55C689.667 767.569 698.383 761.929 699.298 759.525C700.708 755.818 705.744 756.43 709.037 756.43C720.389 756.43 731.741 756.43 743.093 756.43C756.285 756.43 767.392 766.455 781.136 766.455C787.584 766.455 793.851 764.691 798.458 760.329C802.869 756.153 811.844 756.885 817.938 757.606C821.103 757.981 823.91 759.102 826.762 760.329C828.831 761.22 835.05 764.089 836.959 764.228C844.631 764.786 851.18 776.45 859.11 776.728C870.675 777.134 885.444 774.244 896.442 771.159C909.594 767.469 910.814 765.934 923.682 772.025C926.989 773.59 945.36 779.961 953.18 770.911C953.454 768.451 951.709 753.453 956.71 757.173C960.352 759.882 962.1 765.506 966.711 767.446C969.958 768.812 972.279 771.037 975.801 772.025C981.348 773.581 986.993 778.423 989.638 770.911C992.106 763.901 998.949 751.599 1009.07 758.658C1016.04 763.521 1031.15 776.728 1038.81 768.683C1049.02 769.095 1036.76 779.513 1066.66 770.911C1069.06 768.97 1077.78 761.714 1077.9 758.906C1078.07 754.777 1092.15 759.842 1094.34 760.329C1104.95 762.692 1120.89 766.061 1125.22 776.728C1127.82 783.12 1119.68 774.351 1121.11 770.911C1123.47 765.218 1141.8 762.294 1144.96 757.049C1146.32 754.81 1160.29 766.865 1163.06 768.683C1167.6 771.658 1181.39 773.062 1185.23 767.322C1187.53 763.893 1188.5 762.596 1188.5 758.658C1188.5 754.901 1189.64 753.391 1193.86 755.935C1198.67 758.833 1202.38 762.615 1207.32 765.094C1209.39 766.129 1206.84 773.362 1209.18 771.777C1212.25 769.707 1218.24 759.905 1223.14 759.772C1232.26 759.526 1236.51 771.777 1246.08 771.777C1255.6 771.777 1268.14 766.455 1277.66 766.455C1286.2 766.455 1292.82 756.425 1297.2 750.428C1300.79 745.525 1307.33 749.506 1307.33 754.76C1307.33 757.309 1308.51 759.721 1308.51 762.495C1308.51 765.516 1307.4 770.556 1312.04 767.322C1319.33 762.25 1331.6 755.389 1333.15 745.849C1334.58 737.088 1338.84 746.669 1339.1 750.861C1339.23 752.845 1340.29 763.006 1341.1 765.094C1343.53 771.434 1364.73 755.547 1368.52 754.203C1373.63 752.388 1372.88 741.821 1376.61 738.08C1377.95 736.738 1386.78 741.855 1387.28 740.217C1389.07 734.275 1389.78 731.661 1397.02 731.925C1405.67 732.24 1404.2 745.307 1409.7 733.596C1410.98 730.864 1416.48 731.925 1419.11 731.925C1423.18 731.925 1415.69 725.654 1424.58 725.654C1426.23 719.867 1442.01 713.702 1448.56 709.647C1454.03 706.265 1453.99 709.051 1458.59 704.697C1462.75 700.759 1468.36 702.538 1473.23 700.489C1476.72 699.023 1485 695.686 1485 691.825C1485 686.307 1481.47 682.017 1481.47 676.726C1481.47 670.249 1481.47 663.772 1481.47 657.294C1481.47 650.941 1482.25 647.44 1484.41 641.7C1486.37 636.5 1456.37 647.799 1453.1 649.002C1435.11 655.625 1417.65 663.528 1399.57 670.228C1389.86 673.823 1381.26 680.799 1372.05 685.389C1361.95 690.422 1349.28 695.444 1338.19 697.642C1328.72 699.519 1321.01 704.975 1311.45 706.367C1306.16 707.138 1302.14 709.278 1296.48 709.647C1294.12 709.802 1292.67 711.756 1290.34 711.875C1286.3 712.082 1282.52 712.426 1278.51 712.989C1264.63 714.935 1250.73 715.768 1237 718.311C1220.03 721.454 1203.14 720.786 1185.88 720.786C1049.09 720.786 912.305 720.786 775.515 720.786C746.43 720.786 715.791 723.841 687.924 715.217C674.185 710.964 659.625 709.362 645.632 705.749C638.857 703.999 631.1 701.061 624.127 700.736C615.538 700.336 605.724 700.655 597.327 699.065C578.04 695.414 557.627 696.22 538.105 693.558C517.986 690.814 497.372 693.038 477.314 690.464C463.025 688.629 448.08 689.597 433.649 689.597C415.63 689.597 397.611 689.597 379.592 689.597C358.086 689.597 336.581 689.597 315.075 689.597C307.754 689.597 299.73 690.409 292.458 689.35C286.008 688.41 277.15 688.493 271.28 686.194C264.032 683.354 256.397 684.4 248.924 682.419C240.268 680.124 231.354 680.433 222.909 677.344C206.844 671.468 190.57 666.161 174.538 660.017C160.627 654.687 147.158 647.888 133.618 641.7C128.369 639.301 122.751 636.901 117.277 635.017C112.018 633.206 108.35 628.808 102.504 628.333C94.9189 627.718 86.7536 623.754 78.9068 622.826C69.6714 621.733 60.6662 621.65 51.3223 621.65C40.3147 621.65 25.7025 618.818 17.1357 612.182C11.0448 607.464 3.68219 603.148 -1.68977 597.763C-7.15326 592.287 -6.333 585.719 -9.53371 579.322C-12.0787 574.236 -11.6254 578.493 -11.6254 582.664C-11.6254 585.913 -13.9786 588.181 -13.9786 591.018C-13.9786 596.959 -13.9786 602.9 -13.9786 608.84C-13.9786 613.406 -14.3879 638.165 -11.6254 639.472" stroke="url(#paint3_linear_2_3)" stroke-width="33" stroke-linecap="round"/>
<path d="M1450.53 831.954C1557.51 909 1122.01 909 758.515 909C395.02 909 100.35 892.944 100.35 873.138C89.3134 808.13 340.492 852.966 720.396 804.158C744.69 801.037 770.2 807.217 794.2 812.113C949.036 843.697 1488.85 802.854 1450.53 831.954Z" fill="#1E1E1E" fill-opacity="0.37"/>
<g filter="url(#filter1_d_2_3)">
<path d="M51.0259 631.336C46.6297 633.036 45.3819 635.438 43.9243 632.968C43.308 631.923 42.2897 631.174 41.1071 630.924C34.7457 629.58 38.7552 622.376 43.0989 619.517C44.0507 618.89 45.2518 618.983 46.2694 619.474C48.5972 620.598 50.562 621.522 52.0995 623.775C53.2238 625.423 53.5377 627.755 52.4075 629.419C52.2107 629.708 51.808 630.262 51.0259 631.336Z" fill="white"/>
</g>
<g filter="url(#filter2_d_2_3)">
<path d="M35.7757 648.561C34.6822 647.357 33.8238 645.898 33.7568 644.264C33.5816 639.989 35.2314 640.862 37.3777 642.313C39.4264 643.698 41.69 642.554 43.5326 640.863C47.5697 637.157 50.1575 646.391 50.1457 651.127C50.1345 655.584 50.6242 659.209 48.1274 660.55C46.5755 661.383 44.7347 660.478 43.5408 659.208C39.6607 655.083 39.0824 652.201 35.7757 648.561Z" fill="white"/>
</g>
<g filter="url(#filter3_d_2_3)">
<path d="M27.8215 630.946C30.9572 632.901 31.7751 633.325 31.6729 635.128C31.5393 637.486 32.7448 639.552 34.6559 640.941C38.9028 644.028 25.8747 643.703 21.8612 641.201C17.185 638.286 9.97151 639.584 12.9296 634.852C15.8878 630.121 23.1454 628.03 27.8215 630.946Z" fill="white"/>
</g>
<g filter="url(#filter4_d_2_3)">
<path d="M39.3201 625.263C39.5821 630.254 39.257 629.63 35.162 629.716C34.2691 629.735 33.5244 630.403 33.26 631.26C30.8753 638.99 26.6074 632.13 23.7657 627.686C22.5816 625.834 21.7041 623.689 21.5498 621.486C21.301 617.933 21.5308 615.747 25.8144 615.469C31.34 615.111 39.029 619.717 39.3201 625.263Z" fill="white"/>
</g>
<g filter="url(#filter5_d_2_3)">
<path d="M52.0417 646.234C50.5004 645.946 49.0139 645.372 47.6611 644.578C45.0599 643.052 43.5158 642.804 44.623 640.702C45.1863 639.633 45.2831 638.37 44.8836 637.229C42.4678 630.326 53.0356 630.603 57.0846 633.702C61.4604 637.051 66.7081 640.585 63.3214 645.02C60.4395 648.795 56.4918 647.064 52.0417 646.234Z" fill="white"/>
</g>
<path d="M44.7758 640.524C42.9025 643.22 39.593 644.16 35.6005 641.386C31.6912 640.84 30.372 634.511 32.2453 631.816C34.1187 629.12 39.0647 627.145 42.7238 631.136C46.7163 633.91 46.6492 637.828 44.7758 640.524Z" fill="#E7DD00"/>
<g filter="url(#filter6_d_2_3)">
<path d="M344.972 703.317C344.102 704.468 343.823 705.414 343.423 705.789C342.54 706.62 340.99 705.915 339.783 705.851C338.073 705.761 337.824 703.298 338.382 701.347C338.696 700.25 339.779 699.648 340.906 699.566C341.417 699.529 341.907 699.526 342.406 699.61C344.064 699.888 345.097 701.623 344.972 703.317Z" fill="white"/>
</g>
<g filter="url(#filter7_d_2_3)">
<path d="M344.18 714.653C342.76 714.087 339.775 712.78 340.716 711.556C342.146 709.695 343.555 707.644 345.8 708.243C347.109 708.592 348.861 710.391 349.653 711.674C350.376 712.847 351.097 713.828 351.344 714.693C351.827 716.384 349.297 716.87 347.667 716.252C346.31 715.737 345.408 715.142 344.18 714.653Z" fill="white"/>
</g>
<g filter="url(#filter8_d_2_3)">
<path d="M335.336 709.07C335.653 709.07 335.929 709.07 336.169 709.073C338.532 709.103 342.447 711.323 340.56 712.747C339.303 713.695 336.851 714.807 335.499 714.803C332.835 714.797 330.201 717.169 330.211 714.47C330.221 711.772 332.671 709.063 335.336 709.07Z" fill="white"/>
</g>
<g filter="url(#filter9_d_2_3)">
<path d="M338.613 703.804C339.784 705.488 339.75 705.618 338.698 706.278C337.942 706.752 337.697 707.685 337.8 708.577C338.045 710.695 336.249 710.274 334.439 709.504C332.417 708.643 330.036 707.388 329.494 705.236C329.322 704.557 329.57 703.932 330.567 703.221C332.746 701.665 337.08 701.599 338.613 703.804Z" fill="white"/>
</g>
<g filter="url(#filter10_d_2_3)">
<path d="M350.353 708.76C348.873 709.278 347.291 709.656 345.723 709.675C345.522 709.677 345.353 709.665 345.214 709.623C344.058 709.268 343.855 707.596 343.274 706.536C342.177 704.532 345.89 702.531 348.064 702.745C350.716 703.006 353.774 703.122 353.512 705.807C353.332 707.653 351.952 708.2 350.353 708.76Z" fill="white"/>
</g>
<path d="M344.744 708.685C344.661 710.271 343.541 711.501 341.193 711.378C339.447 712.15 337.292 709.885 337.375 708.3C337.458 706.715 338.988 704.643 341.508 705.35C343.856 705.473 344.827 707.1 344.744 708.685Z" fill="#E7DD00"/>
<path d="M221.225 573.083L221.577 584.682L221.619 603L217.182 602.862L221.225 573.083Z" fill="#289130"/>
<path d="M215.661 578.53L217.158 587.913L219.011 602.766L214.576 602.96L215.661 578.53Z" fill="#289130"/>
<path d="M38.2251 515.083L38.5775 526.682L38.6193 545L34.1819 544.862L38.2251 515.083Z" fill="#289130"/>
<path d="M32.6606 520.53L34.1582 529.913L36.0105 544.766L31.5762 544.96L32.6606 520.53Z" fill="#289130"/>
<path d="M353.225 510.083L353.577 521.682L353.619 540L349.182 539.862L353.225 510.083Z" fill="#289130"/>
<path d="M347.661 515.53L349.158 524.913L351.011 539.766L346.576 539.96L347.661 515.53Z" fill="#289130"/>
<path d="M66.2251 288.083L66.5775 299.682L66.6193 318L62.1819 317.862L66.2251 288.083Z" fill="#289130"/>
<path d="M60.6606 293.53L62.1582 302.913L64.0105 317.766L59.5762 317.96L60.6606 293.53Z" fill="#289130"/>
<path d="M212.225 354.083L212.577 365.682L212.619 384L208.182 383.862L212.225 354.083Z" fill="#289130"/>
<path d="M206.661 359.53L208.158 368.913L210.011 383.766L205.576 383.96L206.661 359.53Z" fill="#289130"/>
<path d="M339.225 206.083L339.577 217.682L339.619 236L335.182 235.862L339.225 206.083Z" fill="#289130"/>
<path d="M333.661 211.53L335.158 220.913L337.011 235.766L332.576 235.96L333.661 211.53Z" fill="#289130"/>
<path d="M109.225 75.0829L109.577 86.682L109.619 105L105.182 104.862L109.225 75.0829Z" fill="#289130"/>
<path d="M103.661 80.53L105.158 89.9127L107.011 104.766L102.576 104.96L103.661 80.53Z" fill="#289130"/>
<path d="M261.225 86.0829L261.577 97.682L261.619 116L257.182 115.862L261.225 86.0829Z" fill="#289130"/>
<path d="M255.661 91.53L257.158 100.913L259.011 115.766L254.576 115.96L255.661 91.53Z" fill="#289130"/>
<path d="M29.58 369.047L29.862 375.62L29.8954 386L26.3455 385.922L29.58 369.047Z" fill="#289130"/>
<path d="M25.1285 372.134L26.3266 377.451L27.8084 385.867L24.261 385.977L25.1285 372.134Z" fill="#289130"/>
<g filter="url(#filter11_d_2_3)">
<path d="M366.487 572.945C365.523 574.37 365.318 575.485 364.822 575.82C363.818 576.497 362.384 575.878 361.18 575.977C359.134 576.145 358.71 573.269 359.274 571.038C359.554 569.932 360.603 569.285 361.722 569.133C362.327 569.051 362.903 569.007 363.498 569.075C365.309 569.283 366.527 571.103 366.487 572.945Z" fill="white"/>
</g>
<g filter="url(#filter12_d_2_3)">
<path d="M366.225 585.252C364.683 584.736 362.799 584.211 362.313 582.643C362.298 582.597 362.288 582.553 362.28 582.511C361.837 580.053 365.145 577.798 367.581 578.218C369.023 578.466 371.083 580.36 372.031 581.732C372.949 583.06 373.852 584.146 374.1 585.127C374.531 586.833 372.026 587.375 370.358 586.87C368.718 586.373 367.672 585.736 366.225 585.252Z" fill="white"/>
</g>
<g filter="url(#filter13_d_2_3)">
<path d="M356.376 579.722C356.883 579.697 357.289 579.674 357.622 579.668C359.985 579.629 364.216 581.553 362.5 583.18C361.307 584.311 358.446 585.844 356.879 585.923C353.993 586.067 351.274 588.785 351.132 585.862C350.99 582.938 353.49 579.866 356.376 579.722Z" fill="white"/>
</g>
<g filter="url(#filter14_d_2_3)">
<path d="M359.628 573.833C361.033 575.645 360.959 575.74 359.755 576.581C359.023 577.092 358.82 578.041 358.995 578.922C359.496 581.448 357.288 580.952 355.159 580.142C353.106 579.361 350.845 578.194 349.935 576.173C349.562 575.344 349.712 574.587 350.88 573.657C353.152 571.849 357.842 571.532 359.628 573.833Z" fill="white"/>
</g>
<g filter="url(#filter15_d_2_3)">
<path d="M372.436 578.612C370.985 579.205 369.424 579.622 367.863 579.772C367.467 579.81 367.166 579.814 366.949 579.703C365.872 579.153 365.641 577.643 364.925 576.668C363.354 574.526 367.384 572.039 369.804 572.15C372.691 572.283 376.009 572.235 375.878 575.158C375.784 577.241 374.215 577.886 372.436 578.612Z" fill="white"/>
</g>
<path d="M366.545 578.773C366.545 580.494 365.401 581.89 362.851 581.89C361.004 582.825 358.542 580.494 358.542 578.773C358.542 577.051 360.081 574.72 362.851 575.344C365.401 575.344 366.545 577.051 366.545 578.773Z" fill="#E7DD00"/>
<g filter="url(#filter16_d_2_3)">
<path d="M346.427 76.1892C345.862 77.8142 345.95 78.9446 345.556 79.3958C344.761 80.3076 343.215 80.078 342.077 80.4828C340.143 81.1704 338.994 78.4999 338.966 76.1991C338.953 75.0582 339.8 74.1637 340.843 73.729C341.407 73.4943 341.952 73.3039 342.545 73.217C344.349 72.9524 345.993 74.399 346.427 76.1892Z" fill="white"/>
</g>
<g filter="url(#filter17_d_2_3)">
<path d="M349.336 88.1502C347.712 88.0476 345.757 88.0243 344.884 86.6339C344.859 86.5929 344.837 86.5533 344.819 86.515C343.759 84.2534 346.377 81.2244 348.839 81.0037C350.296 80.8731 352.774 82.1748 354.042 83.2568C355.271 84.3047 356.422 85.1224 356.914 86.007C357.769 87.5452 355.487 88.7125 353.745 88.6522C352.033 88.5929 350.858 88.2464 349.336 88.1502Z" fill="white"/>
</g>
<g filter="url(#filter18_d_2_3)">
<path d="M338.397 85.3358C338.88 85.1814 339.267 85.0549 339.587 84.9638C341.86 84.3187 346.443 85.0918 345.203 87.1047C344.341 88.504 341.97 90.7212 340.475 91.1994C337.723 92.0801 335.794 95.4053 334.906 92.6167C334.017 89.8281 335.644 86.2165 338.397 85.3358Z" fill="white"/>
</g>
<g filter="url(#filter19_d_2_3)">
<path d="M340.026 78.8093C341.85 80.1993 341.803 80.3107 340.855 81.4324C340.279 82.1145 340.327 83.0838 340.722 83.8902C341.855 86.2029 339.594 86.2901 337.329 86.0544C335.143 85.8269 332.658 85.28 331.26 83.5607C330.687 82.8553 330.637 82.085 331.527 80.8868C333.259 78.5556 337.71 77.0437 340.026 78.8093Z" fill="white"/>
</g>
<g filter="url(#filter20_d_2_3)">
<path d="M353.633 80.138C352.382 81.0837 350.981 81.8873 349.511 82.4337C349.138 82.5724 348.848 82.6532 348.61 82.6018C347.428 82.3469 346.816 80.9466 345.874 80.188C343.806 78.5219 347.062 75.0832 349.429 74.5692C352.253 73.9559 355.447 73.0566 356.072 75.916C356.516 77.9527 355.165 78.9791 353.633 80.138Z" fill="white"/>
</g>
<path d="M347.98 81.8063C348.423 83.4702 347.676 85.1128 345.211 85.7678C343.667 87.146 340.688 85.5259 340.246 83.862C339.804 82.1982 340.692 79.5502 343.53 79.4411C345.994 78.7861 347.538 80.1424 347.98 81.8063Z" fill="#E7DD00"/>
</g>
<defs>
<filter id="filter0_d_2_3" x="-14.0001" y="584" width="1500" height="231.009" filterUnits="userSpaceOnUse" color-interpolation-filters="sRGB">
<feFlood flood-opacity="0" result="BackgroundImageFix"/>
<feColorMatrix in="SourceAlpha" type="matrix" values="0 0 0 0 0 0 0 0 0 0 0 0 0 0 0 0 0 0 127 0" result="hardAlpha"/>
<feOffset dy="4"/>
<feGaussianBlur stdDeviation="2"/>
<feComposite in2="hardAlpha" operator="out"/>
<feColorMatrix type="matrix" values="0 0 0 0 0 0 0 0 0 0 0 0 0 0 0 0 0 0 0.25 0"/>
<feBlend mode="normal" in2="BackgroundImageFix" result="effect1_dropShadow_2_3"/>
<feBlend mode="normal" in="SourceGraphic" in2="effect1_dropShadow_2_3" result="shape"/>
</filter>
<filter id="filter1_d_2_3" x="37.7965" y="619.076" width="15.3184" height="15.9503" filterUnits="userSpaceOnUse" color-interpolation-filters="sRGB">
<feFlood flood-opacity="0" result="BackgroundImageFix"/>
<feColorMatrix in="SourceAlpha" type="matrix" values="0 0 0 0 0 0 0 0 0 0 0 0 0 0 0 0 0 0 127 0" result="hardAlpha"/>
<feOffset dy="1"/>
<feComposite in2="hardAlpha" operator="out"/>
<feColorMatrix type="matrix" values="0 0 0 0 0 0 0 0 0 0 0 0 0 0 0 0 0 0 0.25 0"/>
<feBlend mode="normal" in2="BackgroundImageFix" result="effect1_dropShadow_2_3"/>
<feBlend mode="normal" in="SourceGraphic" in2="effect1_dropShadow_2_3" result="shape"/>
</filter>
<filter id="filter2_d_2_3" x="33.744" y="640.006" width="16.4335" height="21.8654" filterUnits="userSpaceOnUse" color-interpolation-filters="sRGB">
<feFlood flood-opacity="0" result="BackgroundImageFix"/>
<feColorMatrix in="SourceAlpha" type="matrix" values="0 0 0 0 0 0 0 0 0 0 0 0 0 0 0 0 0 0 127 0" result="hardAlpha"/>
<feOffset dy="1"/>
<feComposite in2="hardAlpha" operator="out"/>
<feColorMatrix type="matrix" values="0 0 0 0 0 0 0 0 0 0 0 0 0 0 0 0 0 0 0.25 0"/>
<feBlend mode="normal" in2="BackgroundImageFix" result="effect1_dropShadow_2_3"/>
<feBlend mode="normal" in="SourceGraphic" in2="effect1_dropShadow_2_3" result="shape"/>
</filter>
<filter id="filter3_d_2_3" x="12.2388" y="629.607" width="23.2575" height="14.5604" filterUnits="userSpaceOnUse" color-interpolation-filters="sRGB">
<feFlood flood-opacity="0" result="BackgroundImageFix"/>
<feColorMatrix in="SourceAlpha" type="matrix" values="0 0 0 0 0 0 0 0 0 0 0 0 0 0 0 0 0 0 127 0" result="hardAlpha"/>
<feOffset dy="1"/>
<feComposite in2="hardAlpha" operator="out"/>
<feColorMatrix type="matrix" values="0 0 0 0 0 0 0 0 0 0 0 0 0 0 0 0 0 0 0.25 0"/>
<feBlend mode="normal" in2="BackgroundImageFix" result="effect1_dropShadow_2_3"/>
<feBlend mode="normal" in="SourceGraphic" in2="effect1_dropShadow_2_3" result="shape"/>
</filter>
<filter id="filter4_d_2_3" x="21.4818" y="615.45" width="17.906" height="20.3078" filterUnits="userSpaceOnUse" color-interpolation-filters="sRGB">
<feFlood flood-opacity="0" result="BackgroundImageFix"/>
<feColorMatrix in="SourceAlpha" type="matrix" values="0 0 0 0 0 0 0 0 0 0 0 0 0 0 0 0 0 0 127 0" result="hardAlpha"/>
<feOffset dy="1"/>
<feComposite in2="hardAlpha" operator="out"/>
<feColorMatrix type="matrix" values="0 0 0 0 0 0 0 0 0 0 0 0 0 0 0 0 0 0 0.25 0"/>
<feBlend mode="normal" in2="BackgroundImageFix" result="effect1_dropShadow_2_3"/>
<feBlend mode="normal" in="SourceGraphic" in2="effect1_dropShadow_2_3" result="shape"/>
</filter>
<filter id="filter5_d_2_3" x="44.2601" y="631.613" width="20.1443" height="16.7458" filterUnits="userSpaceOnUse" color-interpolation-filters="sRGB">
<feFlood flood-opacity="0" result="BackgroundImageFix"/>
<feColorMatrix in="SourceAlpha" type="matrix" values="0 0 0 0 0 0 0 0 0 0 0 0 0 0 0 0 0 0 127 0" result="hardAlpha"/>
<feOffset dy="1"/>
<feComposite in2="hardAlpha" operator="out"/>
<feColorMatrix type="matrix" values="0 0 0 0 0 0 0 0 0 0 0 0 0 0 0 0 0 0 0.25 0"/>
<feBlend mode="normal" in2="BackgroundImageFix" result="effect1_dropShadow_2_3"/>
<feBlend mode="normal" in="SourceGraphic" in2="effect1_dropShadow_2_3" result="shape"/>
</filter>
<filter id="filter6_d_2_3" x="338.115" y="699.541" width="6.86668" height="7.64957" filterUnits="userSpaceOnUse" color-interpolation-filters="sRGB">
<feFlood flood-opacity="0" result="BackgroundImageFix"/>
<feColorMatrix in="SourceAlpha" type="matrix" values="0 0 0 0 0 0 0 0 0 0 0 0 0 0 0 0 0 0 127 0" result="hardAlpha"/>
<feOffset dy="1"/>
<feComposite in2="hardAlpha" operator="out"/>
<feColorMatrix type="matrix" values="0 0 0 0 0 0 0 0 0 0 0 0 0 0 0 0 0 0 0.25 0"/>
<feBlend mode="normal" in2="BackgroundImageFix" result="effect1_dropShadow_2_3"/>
<feBlend mode="normal" in="SourceGraphic" in2="effect1_dropShadow_2_3" result="shape"/>
</filter>
<filter id="filter7_d_2_3" x="340.536" y="708.137" width="10.8683" height="9.37219" filterUnits="userSpaceOnUse" color-interpolation-filters="sRGB">
<feFlood flood-opacity="0" result="BackgroundImageFix"/>
<feColorMatrix in="SourceAlpha" type="matrix" values="0 0 0 0 0 0 0 0 0 0 0 0 0 0 0 0 0 0 127 0" result="hardAlpha"/>
<feOffset dy="1"/>
<feComposite in2="hardAlpha" operator="out"/>
<feColorMatrix type="matrix" values="0 0 0 0 0 0 0 0 0 0 0 0 0 0 0 0 0 0 0.25 0"/>
<feBlend mode="normal" in2="BackgroundImageFix" result="effect1_dropShadow_2_3"/>
<feBlend mode="normal" in="SourceGraphic" in2="effect1_dropShadow_2_3" result="shape"/>
</filter>
<filter id="filter8_d_2_3" x="330.211" y="709.07" width="10.847" height="7.69119" filterUnits="userSpaceOnUse" color-interpolation-filters="sRGB">
<feFlood flood-opacity="0" result="BackgroundImageFix"/>
<feColorMatrix in="SourceAlpha" type="matrix" values="0 0 0 0 0 0 0 0 0 0 0 0 0 0 0 0 0 0 127 0" result="hardAlpha"/>
<feOffset dy="1"/>
<feComposite in2="hardAlpha" operator="out"/>
<feColorMatrix type="matrix" values="0 0 0 0 0 0 0 0 0 0 0 0 0 0 0 0 0 0 0.25 0"/>
<feBlend mode="normal" in2="BackgroundImageFix" result="effect1_dropShadow_2_3"/>
<feBlend mode="normal" in="SourceGraphic" in2="effect1_dropShadow_2_3" result="shape"/>
</filter>
<filter id="filter9_d_2_3" x="329.443" y="702.095" width="10.0458" height="9.03668" filterUnits="userSpaceOnUse" color-interpolation-filters="sRGB">
<feFlood flood-opacity="0" result="BackgroundImageFix"/>
<feColorMatrix in="SourceAlpha" type="matrix" values="0 0 0 0 0 0 0 0 0 0 0 0 0 0 0 0 0 0 127 0" result="hardAlpha"/>
<feOffset dy="1"/>
<feComposite in2="hardAlpha" operator="out"/>
<feColorMatrix type="matrix" values="0 0 0 0 0 0 0 0 0 0 0 0 0 0 0 0 0 0 0.25 0"/>
<feBlend mode="normal" in2="BackgroundImageFix" result="effect1_dropShadow_2_3"/>
<feBlend mode="normal" in="SourceGraphic" in2="effect1_dropShadow_2_3" result="shape"/>
</filter>
<filter id="filter10_d_2_3" x="343.076" y="702.729" width="10.4521" height="7.94604" filterUnits="userSpaceOnUse" color-interpolation-filters="sRGB">
<feFlood flood-opacity="0" result="BackgroundImageFix"/>
<feColorMatrix in="SourceAlpha" type="matrix" values="0 0 0 0 0 0 0 0 0 0 0 0 0 0 0 0 0 0 127 0" result="hardAlpha"/>
<feOffset dy="1"/>
<feComposite in2="hardAlpha" operator="out"/>
<feColorMatrix type="matrix" values="0 0 0 0 0 0 0 0 0 0 0 0 0 0 0 0 0 0 0.25 0"/>
<feBlend mode="normal" in2="BackgroundImageFix" result="effect1_dropShadow_2_3"/>
<feBlend mode="normal" in="SourceGraphic" in2="effect1_dropShadow_2_3" result="shape"/>
</filter>
<filter id="filter11_d_2_3" x="359.046" y="569.042" width="7.44209" height="8.09985" filterUnits="userSpaceOnUse" color-interpolation-filters="sRGB">
<feFlood flood-opacity="0" result="BackgroundImageFix"/>
<feColorMatrix in="SourceAlpha" type="matrix" values="0 0 0 0 0 0 0 0 0 0 0 0 0 0 0 0 0 0 127 0" result="hardAlpha"/>
<feOffset dy="1"/>
<feComposite in2="hardAlpha" operator="out"/>
<feColorMatrix type="matrix" values="0 0 0 0 0 0 0 0 0 0 0 0 0 0 0 0 0 0 0.25 0"/>
<feBlend mode="normal" in2="BackgroundImageFix" result="effect1_dropShadow_2_3"/>
<feBlend mode="normal" in="SourceGraphic" in2="effect1_dropShadow_2_3" result="shape"/>
</filter>
<filter id="filter12_d_2_3" x="362.24" y="578.167" width="11.9089" height="9.88406" filterUnits="userSpaceOnUse" color-interpolation-filters="sRGB">
<feFlood flood-opacity="0" result="BackgroundImageFix"/>
<feColorMatrix in="SourceAlpha" type="matrix" values="0 0 0 0 0 0 0 0 0 0 0 0 0 0 0 0 0 0 127 0" result="hardAlpha"/>
<feOffset dy="1"/>
<feComposite in2="hardAlpha" operator="out"/>
<feColorMatrix type="matrix" values="0 0 0 0 0 0 0 0 0 0 0 0 0 0 0 0 0 0 0.25 0"/>
<feBlend mode="normal" in2="BackgroundImageFix" result="effect1_dropShadow_2_3"/>
<feBlend mode="normal" in="SourceGraphic" in2="effect1_dropShadow_2_3" result="shape"/>
</filter>
<filter id="filter13_d_2_3" x="351.126" y="579.668" width="11.7725" height="8.5426" filterUnits="userSpaceOnUse" color-interpolation-filters="sRGB">
<feFlood flood-opacity="0" result="BackgroundImageFix"/>
<feColorMatrix in="SourceAlpha" type="matrix" values="0 0 0 0 0 0 0 0 0 0 0 0 0 0 0 0 0 0 127 0" result="hardAlpha"/>
<feOffset dy="1"/>
<feComposite in2="hardAlpha" operator="out"/>
<feColorMatrix type="matrix" values="0 0 0 0 0 0 0 0 0 0 0 0 0 0 0 0 0 0 0.25 0"/>
<feBlend mode="normal" in2="BackgroundImageFix" result="effect1_dropShadow_2_3"/>
<feBlend mode="normal" in="SourceGraphic" in2="effect1_dropShadow_2_3" result="shape"/>
</filter>
<filter id="filter14_d_2_3" x="349.754" y="572.204" width="10.9161" height="9.59448" filterUnits="userSpaceOnUse" color-interpolation-filters="sRGB">
<feFlood flood-opacity="0" result="BackgroundImageFix"/>
<feColorMatrix in="SourceAlpha" type="matrix" values="0 0 0 0 0 0 0 0 0 0 0 0 0 0 0 0 0 0 127 0" result="hardAlpha"/>
<feOffset dy="1"/>
<feComposite in2="hardAlpha" operator="out"/>
<feColorMatrix type="matrix" values="0 0 0 0 0 0 0 0 0 0 0 0 0 0 0 0 0 0 0.25 0"/>
<feBlend mode="normal" in2="BackgroundImageFix" result="effect1_dropShadow_2_3"/>
<feBlend mode="normal" in="SourceGraphic" in2="effect1_dropShadow_2_3" result="shape"/>
</filter>
<filter id="filter15_d_2_3" x="364.572" y="572.147" width="11.3101" height="8.64951" filterUnits="userSpaceOnUse" color-interpolation-filters="sRGB">
<feFlood flood-opacity="0" result="BackgroundImageFix"/>
<feColorMatrix in="SourceAlpha" type="matrix" values="0 0 0 0 0 0 0 0 0 0 0 0 0 0 0 0 0 0 127 0" result="hardAlpha"/>
<feOffset dy="1"/>
<feComposite in2="hardAlpha" operator="out"/>
<feColorMatrix type="matrix" values="0 0 0 0 0 0 0 0 0 0 0 0 0 0 0 0 0 0 0.25 0"/>
<feBlend mode="normal" in2="BackgroundImageFix" result="effect1_dropShadow_2_3"/>
<feBlend mode="normal" in="SourceGraphic" in2="effect1_dropShadow_2_3" result="shape"/>
</filter>
<filter id="filter16_d_2_3" x="338.966" y="73.1856" width="7.46074" height="8.40718" filterUnits="userSpaceOnUse" color-interpolation-filters="sRGB">
<feFlood flood-opacity="0" result="BackgroundImageFix"/>
<feColorMatrix in="SourceAlpha" type="matrix" values="0 0 0 0 0 0 0 0 0 0 0 0 0 0 0 0 0 0 127 0" result="hardAlpha"/>
<feOffset dy="1"/>
<feComposite in2="hardAlpha" operator="out"/>
<feColorMatrix type="matrix" values="0 0 0 0 0 0 0 0 0 0 0 0 0 0 0 0 0 0 0.25 0"/>
<feBlend mode="normal" in2="BackgroundImageFix" result="effect1_dropShadow_2_3"/>
<feBlend mode="normal" in="SourceGraphic" in2="effect1_dropShadow_2_3" result="shape"/>
</filter>
<filter id="filter17_d_2_3" x="344.577" y="80.9947" width="12.5224" height="8.65976" filterUnits="userSpaceOnUse" color-interpolation-filters="sRGB">
<feFlood flood-opacity="0" result="BackgroundImageFix"/>
<feColorMatrix in="SourceAlpha" type="matrix" values="0 0 0 0 0 0 0 0 0 0 0 0 0 0 0 0 0 0 127 0" result="hardAlpha"/>
<feOffset dy="1"/>
<feComposite in2="hardAlpha" operator="out"/>
<feColorMatrix type="matrix" values="0 0 0 0 0 0 0 0 0 0 0 0 0 0 0 0 0 0 0.25 0"/>
<feBlend mode="normal" in2="BackgroundImageFix" result="effect1_dropShadow_2_3"/>
<feBlend mode="normal" in="SourceGraphic" in2="effect1_dropShadow_2_3" result="shape"/>
</filter>
<filter id="filter18_d_2_3" x="334.662" y="84.7416" width="10.7503" height="9.96767" filterUnits="userSpaceOnUse" color-interpolation-filters="sRGB">
<feFlood flood-opacity="0" result="BackgroundImageFix"/>
<feColorMatrix in="SourceAlpha" type="matrix" values="0 0 0 0 0 0 0 0 0 0 0 0 0 0 0 0 0 0 127 0" result="hardAlpha"/>
<feOffset dy="1"/>
<feComposite in2="hardAlpha" operator="out"/>
<feColorMatrix type="matrix" values="0 0 0 0 0 0 0 0 0 0 0 0 0 0 0 0 0 0 0.25 0"/>
<feBlend mode="normal" in2="BackgroundImageFix" result="effect1_dropShadow_2_3"/>
<feBlend mode="normal" in="SourceGraphic" in2="effect1_dropShadow_2_3" result="shape"/>
</filter>
<filter id="filter19_d_2_3" x="330.842" y="78.0387" width="10.6593" height="9.10411" filterUnits="userSpaceOnUse" color-interpolation-filters="sRGB">
<feFlood flood-opacity="0" result="BackgroundImageFix"/>
<feColorMatrix in="SourceAlpha" type="matrix" values="0 0 0 0 0 0 0 0 0 0 0 0 0 0 0 0 0 0 127 0" result="hardAlpha"/>
<feOffset dy="1"/>
<feComposite in2="hardAlpha" operator="out"/>
<feColorMatrix type="matrix" values="0 0 0 0 0 0 0 0 0 0 0 0 0 0 0 0 0 0 0.25 0"/>
<feBlend mode="normal" in2="BackgroundImageFix" result="effect1_dropShadow_2_3"/>
<feBlend mode="normal" in="SourceGraphic" in2="effect1_dropShadow_2_3" result="shape"/>
</filter>
<filter id="filter20_d_2_3" x="345.216" y="73.9348" width="10.9417" height="9.68262" filterUnits="userSpaceOnUse" color-interpolation-filters="sRGB">
<feFlood flood-opacity="0" result="BackgroundImageFix"/>
<feColorMatrix in="SourceAlpha" type="matrix" values="0 0 0 0 0 0 0 0 0 0 0 0 0 0 0 0 0 0 127 0" result="hardAlpha"/>
<feOffset dy="1"/>
<feComposite in2="hardAlpha" operator="out"/>
<feColorMatrix type="matrix" values="0 0 0 0 0 0 0 0 0 0 0 0 0 0 0 0 0 0 0.25 0"/>
<feBlend mode="normal" in2="BackgroundImageFix" result="effect1_dropShadow_2_3"/>
<feBlend mode="normal" in="SourceGraphic" in2="effect1_dropShadow_2_3" result="shape"/>
</filter>
<radialGradient id="paint0_radial_2_3" cx="0" cy="0" r="1" gradientUnits="userSpaceOnUse" gradientTransform="translate(214.121 318.581) rotate(90.1097) scale(324.42 337.671)">
<stop offset="0.276268" stop-color="#83BC30"/>
<stop offset="1" stop-color="#289130"/>
</radialGradient>
<linearGradient id="paint1_linear_2_3" x1="130.846" y1="740.057" x2="1476.39" y2="788.501" gradientUnits="userSpaceOnUse">
<stop stop-color="#669617"/>
<stop offset="1" stop-color="#365600"/>
</linearGradient>
<linearGradient id="paint2_linear_2_3" x1="76.756" y1="659.846" x2="1418.92" y2="713.836" gradientUnits="userSpaceOnUse">
<stop offset="0.0654148" stop-color="#B4CE3F"/>
<stop offset="0.25414" stop-color="#B3CD3F"/>
<stop offset="0.492052" stop-color="#669617"/>
</linearGradient>
<linearGradient id="paint3_linear_2_3" x1="45.4988" y1="646.495" x2="1109.52" y2="745.409" gradientUnits="userSpaceOnUse">
<stop offset="0.0966111" stop-color="#B3CD3F"/>
<stop offset="0.35606" stop-color="#B3CD3F"/>
<stop offset="0.656087" stop-color="#669617"/>
</linearGradient>
<clipPath id="clip0_2_3">
<rect width="390" height="844" fill="white"/>
</clipPath>
</defs>
</svg>
