<svg width="36" height="36" viewBox="0 0 36 36" fill="none" xmlns="http://www.w3.org/2000/svg">
<g filter="url(#filter0_d_5_391)">
<circle cx="18.1013" cy="13.8987" r="12.5" transform="rotate(90 18.1013 13.8987)" fill="#E7DD00"/>
<circle cx="18.1013" cy="13.8987" r="12.5" transform="rotate(90 18.1013 13.8987)" fill="url(#paint0_radial_5_391)" fill-opacity="0.85"/>
</g>
<path d="M14.6072 25.3987L18.6013 25.6161L17.939 28.5845L18.0577 35.6013L16.529 33.0136C16.3838 32.7679 16.0353 32.7489 15.8643 32.9774L14.0636 35.3839L15.4427 28.4486L14.6072 25.3987Z" fill="#D12A2A"/>
<g filter="url(#filter1_d_5_391)">
<circle cx="27.6013" cy="14.3987" r="8" transform="rotate(90 27.6013 14.3987)" fill="#FAFAFA"/>
</g>
<path d="M27.6013 7.89867C21.1013 6.89867 19.6013 18.8169 19.6013 14.3987C19.6013 9.98039 23.1831 6.39867 27.6013 6.39867C32.0196 6.39867 35.6013 9.98039 35.6013 14.3987C35.6013 18.8169 36.1013 8.89867 27.6013 7.89867Z" fill="#E7DD00"/>
<g filter="url(#filter2_d_5_391)">
<circle cx="10.6013" cy="14.3987" r="8" transform="rotate(90 10.6013 14.3987)" fill="#FAFAFA"/>
</g>
<circle cx="26.1013" cy="16.8987" r="5.5" transform="rotate(90 26.1013 16.8987)" fill="#1E1E1E"/>
<circle cx="11.1013" cy="16.8987" r="5.5" transform="rotate(90 11.1013 16.8987)" fill="#1E1E1E"/>
<path d="M10.5958 7.89867C4.09576 6.89867 2.59578 18.8169 2.59578 14.3987C2.59578 9.98039 6.1775 6.39867 10.5958 6.39867C15.0141 6.39867 18.5958 9.98039 18.5958 14.3987C18.5958 18.8169 19.0958 8.89867 10.5958 7.89867Z" fill="#E7DD00"/>
<defs>
<filter id="filter0_d_5_391" x="3.60132" y="0.398666" width="29" height="29" filterUnits="userSpaceOnUse" color-interpolation-filters="sRGB">
<feFlood flood-opacity="0" result="BackgroundImageFix"/>
<feColorMatrix in="SourceAlpha" type="matrix" values="0 0 0 0 0 0 0 0 0 0 0 0 0 0 0 0 0 0 127 0" result="hardAlpha"/>
<feOffset dy="1"/>
<feGaussianBlur stdDeviation="1"/>
<feComposite in2="hardAlpha" operator="out"/>
<feColorMatrix type="matrix" values="0 0 0 0 0 0 0 0 0 0 0 0 0 0 0 0 0 0 0.25 0"/>
<feBlend mode="normal" in2="BackgroundImageFix" result="effect1_dropShadow_5_391"/>
<feBlend mode="normal" in="SourceGraphic" in2="effect1_dropShadow_5_391" result="shape"/>
</filter>
<filter id="filter1_d_5_391" x="17.6013" y="5.39867" width="18" height="18" filterUnits="userSpaceOnUse" color-interpolation-filters="sRGB">
<feFlood flood-opacity="0" result="BackgroundImageFix"/>
<feColorMatrix in="SourceAlpha" type="matrix" values="0 0 0 0 0 0 0 0 0 0 0 0 0 0 0 0 0 0 127 0" result="hardAlpha"/>
<feOffset dx="-1"/>
<feGaussianBlur stdDeviation="0.5"/>
<feComposite in2="hardAlpha" operator="out"/>
<feColorMatrix type="matrix" values="0 0 0 0 0 0 0 0 0 0 0 0 0 0 0 0 0 0 0.25 0"/>
<feBlend mode="normal" in2="BackgroundImageFix" result="effect1_dropShadow_5_391"/>
<feBlend mode="normal" in="SourceGraphic" in2="effect1_dropShadow_5_391" result="shape"/>
</filter>
<filter id="filter2_d_5_391" x="0.601318" y="5.39867" width="18" height="18" filterUnits="userSpaceOnUse" color-interpolation-filters="sRGB">
<feFlood flood-opacity="0" result="BackgroundImageFix"/>
<feColorMatrix in="SourceAlpha" type="matrix" values="0 0 0 0 0 0 0 0 0 0 0 0 0 0 0 0 0 0 127 0" result="hardAlpha"/>
<feOffset dx="-1"/>
<feGaussianBlur stdDeviation="0.5"/>
<feComposite in2="hardAlpha" operator="out"/>
<feColorMatrix type="matrix" values="0 0 0 0 0 0 0 0 0 0 0 0 0 0 0 0 0 0 0.25 0"/>
<feBlend mode="normal" in2="BackgroundImageFix" result="effect1_dropShadow_5_391"/>
<feBlend mode="normal" in="SourceGraphic" in2="effect1_dropShadow_5_391" result="shape"/>
</filter>
<radialGradient id="paint0_radial_5_391" cx="0" cy="0" r="1" gradientUnits="userSpaceOnUse" gradientTransform="translate(18.1013 13.8987) rotate(90) scale(12.5)">
<stop stop-color="white"/>
<stop offset="1" stop-color="#E7DD00"/>
</radialGradient>
</defs>
</svg>
